<mxfile host="app.diagrams.net" modified="2020-08-30T06:22:00.491Z" agent="5.0 (Windows NT 10.0; Win64; x64) AppleWebKit/537.36 (KHTML, like Gecko) Chrome/84.0.4147.125 Safari/537.36 Edg/84.0.522.59" etag="JfGzrDHJesamPkz3ELQ8" version="13.6.4" type="github">
  <diagram id="XIEwJmgOxNmqymngDd2L" name="Page-1">
    <mxGraphModel dx="2062" dy="1132" grid="1" gridSize="10" guides="1" tooltips="1" connect="1" arrows="1" fold="1" page="1" pageScale="1" pageWidth="827" pageHeight="1169" math="0" shadow="0">
      <root>
        <mxCell id="0" />
        <mxCell id="1" parent="0" />
        <mxCell id="7AzHG-92tgLLTeT5lNPb-29" value="" style="edgeStyle=orthogonalEdgeStyle;rounded=0;orthogonalLoop=1;jettySize=auto;html=1;" edge="1" parent="1" source="7AzHG-92tgLLTeT5lNPb-1" target="7AzHG-92tgLLTeT5lNPb-17">
          <mxGeometry relative="1" as="geometry" />
        </mxCell>
        <mxCell id="7AzHG-92tgLLTeT5lNPb-35" value="" style="edgeStyle=orthogonalEdgeStyle;rounded=0;orthogonalLoop=1;jettySize=auto;html=1;" edge="1" parent="1" source="7AzHG-92tgLLTeT5lNPb-1" target="7AzHG-92tgLLTeT5lNPb-34">
          <mxGeometry relative="1" as="geometry" />
        </mxCell>
        <mxCell id="7AzHG-92tgLLTeT5lNPb-1" value="语法检查" style="rounded=0;whiteSpace=wrap;html=1;" vertex="1" parent="1">
          <mxGeometry x="110" y="500" width="120" height="60" as="geometry" />
        </mxCell>
        <mxCell id="7AzHG-92tgLLTeT5lNPb-28" value="" style="edgeStyle=orthogonalEdgeStyle;rounded=0;orthogonalLoop=1;jettySize=auto;html=1;" edge="1" parent="1" source="7AzHG-92tgLLTeT5lNPb-2" target="7AzHG-92tgLLTeT5lNPb-1">
          <mxGeometry relative="1" as="geometry" />
        </mxCell>
        <mxCell id="7AzHG-92tgLLTeT5lNPb-2" value="决策依赖分析" style="whiteSpace=wrap;html=1;rounded=0;" vertex="1" parent="1">
          <mxGeometry x="110" y="400" width="120" height="60" as="geometry" />
        </mxCell>
        <mxCell id="7AzHG-92tgLLTeT5lNPb-83" value="" style="edgeStyle=orthogonalEdgeStyle;rounded=0;orthogonalLoop=1;jettySize=auto;html=1;startArrow=none;startFill=0;endArrow=classic;endFill=1;" edge="1" parent="1" source="7AzHG-92tgLLTeT5lNPb-4">
          <mxGeometry relative="1" as="geometry">
            <mxPoint x="567" y="790" as="targetPoint" />
          </mxGeometry>
        </mxCell>
        <mxCell id="7AzHG-92tgLLTeT5lNPb-4" value="策略规则集编译" style="whiteSpace=wrap;html=1;rounded=0;" vertex="1" parent="1">
          <mxGeometry x="507" y="670" width="120" height="40" as="geometry" />
        </mxCell>
        <mxCell id="7AzHG-92tgLLTeT5lNPb-6" value="&#xa;&#xa;&lt;span style=&quot;color: rgba(0, 0, 0, 0); font-family: monospace; font-size: 0px; font-style: normal; font-weight: 400; letter-spacing: normal; text-indent: 0px; text-transform: none; word-spacing: 0px; background-color: rgb(248, 249, 250); display: inline; float: none;&quot;&gt;&amp;nbsp;&lt;/span&gt;&#xa;&#xa;" style="endArrow=none;dashed=1;html=1;" edge="1" parent="1">
          <mxGeometry width="50" height="50" relative="1" as="geometry">
            <mxPoint x="270" y="1210" as="sourcePoint" />
            <mxPoint x="270" y="350" as="targetPoint" />
          </mxGeometry>
        </mxCell>
        <mxCell id="7AzHG-92tgLLTeT5lNPb-27" value="" style="edgeStyle=orthogonalEdgeStyle;rounded=0;orthogonalLoop=1;jettySize=auto;html=1;" edge="1" parent="1" source="7AzHG-92tgLLTeT5lNPb-9" target="7AzHG-92tgLLTeT5lNPb-2">
          <mxGeometry relative="1" as="geometry" />
        </mxCell>
        <mxCell id="7AzHG-92tgLLTeT5lNPb-9" value="" style="verticalLabelPosition=bottom;verticalAlign=top;html=1;shape=mxgraph.flowchart.on-page_reference;" vertex="1" parent="1">
          <mxGeometry x="160" y="350" width="20" height="20" as="geometry" />
        </mxCell>
        <mxCell id="7AzHG-92tgLLTeT5lNPb-13" value="&lt;span&gt;特征服务编译&lt;/span&gt;" style="whiteSpace=wrap;html=1;rounded=0;" vertex="1" parent="1">
          <mxGeometry x="710" y="670" width="120" height="40" as="geometry" />
        </mxCell>
        <mxCell id="7AzHG-92tgLLTeT5lNPb-15" value="&#xa;&#xa;&lt;span style=&quot;color: rgba(0, 0, 0, 0); font-family: monospace; font-size: 0px; font-style: normal; font-weight: 400; letter-spacing: normal; text-indent: 0px; text-transform: none; word-spacing: 0px; background-color: rgb(248, 249, 250); display: inline; float: none;&quot;&gt;&amp;nbsp;&lt;/span&gt;&#xa;&#xa;" style="endArrow=none;dashed=1;html=1;" edge="1" parent="1">
          <mxGeometry width="50" height="50" relative="1" as="geometry">
            <mxPoint x="470" y="1210" as="sourcePoint" />
            <mxPoint x="470" y="350" as="targetPoint" />
          </mxGeometry>
        </mxCell>
        <mxCell id="7AzHG-92tgLLTeT5lNPb-20" value="&#xa;&#xa;&lt;span style=&quot;color: rgba(0, 0, 0, 0); font-family: monospace; font-size: 0px; font-style: normal; font-weight: 400; letter-spacing: normal; text-indent: 0px; text-transform: none; word-spacing: 0px; background-color: rgb(248, 249, 250); display: inline; float: none;&quot;&gt;&amp;nbsp;&lt;/span&gt;&#xa;&#xa;" style="edgeStyle=orthogonalEdgeStyle;rounded=0;orthogonalLoop=1;jettySize=auto;html=1;exitX=1;exitY=0.5;exitDx=0;exitDy=0;entryX=0.5;entryY=0;entryDx=0;entryDy=0;" edge="1" parent="1" source="7AzHG-92tgLLTeT5lNPb-17" target="7AzHG-92tgLLTeT5lNPb-13">
          <mxGeometry relative="1" as="geometry" />
        </mxCell>
        <mxCell id="7AzHG-92tgLLTeT5lNPb-16" value="决策流编译" style="whiteSpace=wrap;html=1;rounded=0;" vertex="1" parent="1">
          <mxGeometry x="310" y="670" width="120" height="40" as="geometry" />
        </mxCell>
        <mxCell id="7AzHG-92tgLLTeT5lNPb-19" value="" style="edgeStyle=orthogonalEdgeStyle;rounded=0;orthogonalLoop=1;jettySize=auto;html=1;" edge="1" parent="1" source="7AzHG-92tgLLTeT5lNPb-17" target="7AzHG-92tgLLTeT5lNPb-16">
          <mxGeometry relative="1" as="geometry" />
        </mxCell>
        <mxCell id="7AzHG-92tgLLTeT5lNPb-22" value="" style="edgeStyle=orthogonalEdgeStyle;rounded=0;orthogonalLoop=1;jettySize=auto;html=1;" edge="1" parent="1" source="7AzHG-92tgLLTeT5lNPb-17" target="7AzHG-92tgLLTeT5lNPb-4">
          <mxGeometry relative="1" as="geometry">
            <mxPoint x="310" y="630" as="targetPoint" />
          </mxGeometry>
        </mxCell>
        <mxCell id="7AzHG-92tgLLTeT5lNPb-42" value="" style="edgeStyle=orthogonalEdgeStyle;rounded=0;orthogonalLoop=1;jettySize=auto;html=1;" edge="1" parent="1" source="7AzHG-92tgLLTeT5lNPb-17" target="7AzHG-92tgLLTeT5lNPb-41">
          <mxGeometry relative="1" as="geometry" />
        </mxCell>
        <mxCell id="7AzHG-92tgLLTeT5lNPb-17" value="编译任务生成" style="whiteSpace=wrap;html=1;rounded=0;" vertex="1" parent="1">
          <mxGeometry x="110" y="600" width="120" height="60" as="geometry" />
        </mxCell>
        <mxCell id="7AzHG-92tgLLTeT5lNPb-24" value="&#xa;&#xa;&lt;span style=&quot;color: rgba(0, 0, 0, 0); font-family: monospace; font-size: 0px; font-style: normal; font-weight: 400; letter-spacing: normal; text-indent: 0px; text-transform: none; word-spacing: 0px; background-color: rgb(248, 249, 250); display: inline; float: none;&quot;&gt;&amp;nbsp;&lt;/span&gt;&#xa;&#xa;" style="endArrow=none;dashed=1;html=1;" edge="1" parent="1">
          <mxGeometry width="50" height="50" relative="1" as="geometry">
            <mxPoint x="670" y="1210" as="sourcePoint" />
            <mxPoint x="670" y="350" as="targetPoint" />
          </mxGeometry>
        </mxCell>
        <mxCell id="7AzHG-92tgLLTeT5lNPb-37" value="" style="edgeStyle=orthogonalEdgeStyle;rounded=0;orthogonalLoop=1;jettySize=auto;html=1;" edge="1" parent="1" source="7AzHG-92tgLLTeT5lNPb-34" target="7AzHG-92tgLLTeT5lNPb-36">
          <mxGeometry relative="1" as="geometry" />
        </mxCell>
        <mxCell id="7AzHG-92tgLLTeT5lNPb-34" value="决策流正确性检查" style="whiteSpace=wrap;html=1;rounded=0;" vertex="1" parent="1">
          <mxGeometry x="310" y="500" width="120" height="60" as="geometry" />
        </mxCell>
        <mxCell id="7AzHG-92tgLLTeT5lNPb-39" value="" style="edgeStyle=orthogonalEdgeStyle;rounded=0;orthogonalLoop=1;jettySize=auto;html=1;" edge="1" parent="1" source="7AzHG-92tgLLTeT5lNPb-36" target="7AzHG-92tgLLTeT5lNPb-38">
          <mxGeometry relative="1" as="geometry" />
        </mxCell>
        <mxCell id="7AzHG-92tgLLTeT5lNPb-36" value="规则集预编译检查" style="whiteSpace=wrap;html=1;rounded=0;" vertex="1" parent="1">
          <mxGeometry x="510" y="500" width="120" height="60" as="geometry" />
        </mxCell>
        <mxCell id="7AzHG-92tgLLTeT5lNPb-38" value="特征服务正确性检查" style="whiteSpace=wrap;html=1;rounded=0;" vertex="1" parent="1">
          <mxGeometry x="710" y="500" width="120" height="60" as="geometry" />
        </mxCell>
        <mxCell id="7AzHG-92tgLLTeT5lNPb-44" value="" style="edgeStyle=orthogonalEdgeStyle;rounded=0;orthogonalLoop=1;jettySize=auto;html=1;" edge="1" parent="1" source="7AzHG-92tgLLTeT5lNPb-41" target="7AzHG-92tgLLTeT5lNPb-43">
          <mxGeometry relative="1" as="geometry" />
        </mxCell>
        <mxCell id="7AzHG-92tgLLTeT5lNPb-41" value="编译文件校验" style="whiteSpace=wrap;html=1;rounded=0;" vertex="1" parent="1">
          <mxGeometry x="110" y="700" width="120" height="60" as="geometry" />
        </mxCell>
        <mxCell id="7AzHG-92tgLLTeT5lNPb-46" value="" style="edgeStyle=orthogonalEdgeStyle;rounded=0;orthogonalLoop=1;jettySize=auto;html=1;" edge="1" parent="1" source="7AzHG-92tgLLTeT5lNPb-43" target="7AzHG-92tgLLTeT5lNPb-45">
          <mxGeometry relative="1" as="geometry" />
        </mxCell>
        <mxCell id="7AzHG-92tgLLTeT5lNPb-43" value="编译文件打包" style="whiteSpace=wrap;html=1;rounded=0;" vertex="1" parent="1">
          <mxGeometry x="110" y="800" width="120" height="60" as="geometry" />
        </mxCell>
        <mxCell id="7AzHG-92tgLLTeT5lNPb-52" value="" style="edgeStyle=orthogonalEdgeStyle;rounded=0;orthogonalLoop=1;jettySize=auto;html=1;" edge="1" parent="1" source="7AzHG-92tgLLTeT5lNPb-45" target="7AzHG-92tgLLTeT5lNPb-51">
          <mxGeometry relative="1" as="geometry" />
        </mxCell>
        <mxCell id="7AzHG-92tgLLTeT5lNPb-45" value="编译文件包上传" style="whiteSpace=wrap;html=1;rounded=0;" vertex="1" parent="1">
          <mxGeometry x="110" y="900" width="120" height="60" as="geometry" />
        </mxCell>
        <mxCell id="7AzHG-92tgLLTeT5lNPb-51" value="" style="ellipse;html=1;shape=endState;fillColor=#000000;strokeColor=#ff0000;" vertex="1" parent="1">
          <mxGeometry x="155" y="990" width="30" height="30" as="geometry" />
        </mxCell>
        <mxCell id="7AzHG-92tgLLTeT5lNPb-57" value="" style="edgeStyle=orthogonalEdgeStyle;rounded=0;orthogonalLoop=1;jettySize=auto;html=1;endArrow=none;endFill=0;" edge="1" parent="1" source="7AzHG-92tgLLTeT5lNPb-55" target="7AzHG-92tgLLTeT5lNPb-16">
          <mxGeometry relative="1" as="geometry" />
        </mxCell>
        <mxCell id="7AzHG-92tgLLTeT5lNPb-55" value="&#xa;&#xa;&lt;span style=&quot;color: rgba(0, 0, 0, 0); font-family: monospace; font-size: 0px; font-style: normal; font-weight: 400; letter-spacing: normal; text-indent: 0px; text-transform: none; word-spacing: 0px; background-color: rgb(248, 249, 250); display: inline; float: none;&quot;&gt;&amp;nbsp;&lt;/span&gt;&#xa;&#xa;" style="shape=ext;rounded=1;html=1;whiteSpace=wrap;dashed=1;dashPattern=1 4;" vertex="1" parent="1">
          <mxGeometry x="295" y="739" width="150" height="311" as="geometry" />
        </mxCell>
        <mxCell id="7AzHG-92tgLLTeT5lNPb-67" value="" style="edgeStyle=orthogonalEdgeStyle;rounded=0;orthogonalLoop=1;jettySize=auto;html=1;startArrow=none;startFill=0;endArrow=classic;endFill=1;" edge="1" parent="1" source="7AzHG-92tgLLTeT5lNPb-59" target="7AzHG-92tgLLTeT5lNPb-66">
          <mxGeometry relative="1" as="geometry" />
        </mxCell>
        <mxCell id="7AzHG-92tgLLTeT5lNPb-59" value="决策流节点&lt;br&gt;AOV网络构建" style="html=1;" vertex="1" parent="1">
          <mxGeometry x="315" y="750" width="110" height="50" as="geometry" />
        </mxCell>
        <mxCell id="7AzHG-92tgLLTeT5lNPb-69" value="" style="edgeStyle=orthogonalEdgeStyle;rounded=0;orthogonalLoop=1;jettySize=auto;html=1;startArrow=none;startFill=0;endArrow=classic;endFill=1;" edge="1" parent="1" source="7AzHG-92tgLLTeT5lNPb-66" target="7AzHG-92tgLLTeT5lNPb-68">
          <mxGeometry relative="1" as="geometry" />
        </mxCell>
        <mxCell id="7AzHG-92tgLLTeT5lNPb-66" value="决策流节点&lt;br&gt;拓扑遍历" style="html=1;" vertex="1" parent="1">
          <mxGeometry x="315" y="830" width="110" height="50" as="geometry" />
        </mxCell>
        <mxCell id="7AzHG-92tgLLTeT5lNPb-71" value="" style="edgeStyle=orthogonalEdgeStyle;rounded=0;orthogonalLoop=1;jettySize=auto;html=1;startArrow=none;startFill=0;endArrow=classic;endFill=1;" edge="1" parent="1" source="7AzHG-92tgLLTeT5lNPb-68" target="7AzHG-92tgLLTeT5lNPb-70">
          <mxGeometry relative="1" as="geometry" />
        </mxCell>
        <mxCell id="7AzHG-92tgLLTeT5lNPb-68" value="决策流执行优化" style="html=1;" vertex="1" parent="1">
          <mxGeometry x="315" y="910" width="110" height="50" as="geometry" />
        </mxCell>
        <mxCell id="7AzHG-92tgLLTeT5lNPb-70" value="Java源码生成&amp;amp;编译" style="html=1;" vertex="1" parent="1">
          <mxGeometry x="315" y="990" width="110" height="50" as="geometry" />
        </mxCell>
        <mxCell id="7AzHG-92tgLLTeT5lNPb-74" value="&#xa;&#xa;&lt;span style=&quot;color: rgba(0, 0, 0, 0); font-family: monospace; font-size: 0px; font-style: normal; font-weight: 400; letter-spacing: normal; text-indent: 0px; text-transform: none; word-spacing: 0px; background-color: rgb(248, 249, 250); display: inline; float: none;&quot;&gt;&amp;nbsp;&lt;/span&gt;&#xa;&#xa;" style="shape=ext;rounded=1;html=1;whiteSpace=wrap;dashed=1;dashPattern=1 4;" vertex="1" parent="1">
          <mxGeometry x="492" y="739" width="150" height="391" as="geometry" />
        </mxCell>
        <mxCell id="7AzHG-92tgLLTeT5lNPb-75" value="" style="edgeStyle=orthogonalEdgeStyle;rounded=0;orthogonalLoop=1;jettySize=auto;html=1;startArrow=none;startFill=0;endArrow=classic;endFill=1;" edge="1" source="7AzHG-92tgLLTeT5lNPb-76" target="7AzHG-92tgLLTeT5lNPb-78" parent="1">
          <mxGeometry relative="1" as="geometry" />
        </mxCell>
        <mxCell id="7AzHG-92tgLLTeT5lNPb-76" value="策略规则脚本获取" style="html=1;" vertex="1" parent="1">
          <mxGeometry x="512" y="750" width="110" height="50" as="geometry" />
        </mxCell>
        <mxCell id="7AzHG-92tgLLTeT5lNPb-77" value="" style="edgeStyle=orthogonalEdgeStyle;rounded=0;orthogonalLoop=1;jettySize=auto;html=1;startArrow=none;startFill=0;endArrow=classic;endFill=1;" edge="1" source="7AzHG-92tgLLTeT5lNPb-78" target="7AzHG-92tgLLTeT5lNPb-80" parent="1">
          <mxGeometry relative="1" as="geometry" />
        </mxCell>
        <mxCell id="7AzHG-92tgLLTeT5lNPb-78" value="规则词法解析" style="html=1;" vertex="1" parent="1">
          <mxGeometry x="512" y="830" width="110" height="50" as="geometry" />
        </mxCell>
        <mxCell id="7AzHG-92tgLLTeT5lNPb-79" value="" style="edgeStyle=orthogonalEdgeStyle;rounded=0;orthogonalLoop=1;jettySize=auto;html=1;startArrow=none;startFill=0;endArrow=classic;endFill=1;" edge="1" source="7AzHG-92tgLLTeT5lNPb-80" target="7AzHG-92tgLLTeT5lNPb-81" parent="1">
          <mxGeometry relative="1" as="geometry" />
        </mxCell>
        <mxCell id="7AzHG-92tgLLTeT5lNPb-80" value="语义分析" style="html=1;" vertex="1" parent="1">
          <mxGeometry x="512" y="910" width="110" height="50" as="geometry" />
        </mxCell>
        <mxCell id="7AzHG-92tgLLTeT5lNPb-89" value="" style="edgeStyle=orthogonalEdgeStyle;rounded=0;orthogonalLoop=1;jettySize=auto;html=1;startArrow=none;startFill=0;endArrow=classic;endFill=1;" edge="1" parent="1" source="7AzHG-92tgLLTeT5lNPb-81" target="7AzHG-92tgLLTeT5lNPb-88">
          <mxGeometry relative="1" as="geometry" />
        </mxCell>
        <mxCell id="7AzHG-92tgLLTeT5lNPb-81" value="执行优化" style="html=1;" vertex="1" parent="1">
          <mxGeometry x="512" y="990" width="110" height="50" as="geometry" />
        </mxCell>
        <mxCell id="7AzHG-92tgLLTeT5lNPb-88" value="Java源码生成&amp;amp;编译" style="html=1;" vertex="1" parent="1">
          <mxGeometry x="512" y="1070" width="110" height="50" as="geometry" />
        </mxCell>
        <mxCell id="7AzHG-92tgLLTeT5lNPb-90" value="" style="edgeStyle=orthogonalEdgeStyle;rounded=0;orthogonalLoop=1;jettySize=auto;html=1;startArrow=none;startFill=0;endArrow=classic;endFill=1;" edge="1" parent="1">
          <mxGeometry relative="1" as="geometry">
            <mxPoint x="770" y="710" as="sourcePoint" />
            <mxPoint x="770" y="790" as="targetPoint" />
          </mxGeometry>
        </mxCell>
        <mxCell id="7AzHG-92tgLLTeT5lNPb-91" value="&#xa;&#xa;&lt;span style=&quot;color: rgba(0, 0, 0, 0); font-family: monospace; font-size: 0px; font-style: normal; font-weight: 400; letter-spacing: normal; text-indent: 0px; text-transform: none; word-spacing: 0px; background-color: rgb(248, 249, 250); display: inline; float: none;&quot;&gt;&amp;nbsp;&lt;/span&gt;&#xa;&#xa;" style="shape=ext;rounded=1;html=1;whiteSpace=wrap;dashed=1;dashPattern=1 4;" vertex="1" parent="1">
          <mxGeometry x="695" y="739" width="150" height="391" as="geometry" />
        </mxCell>
        <mxCell id="7AzHG-92tgLLTeT5lNPb-92" value="" style="edgeStyle=orthogonalEdgeStyle;rounded=0;orthogonalLoop=1;jettySize=auto;html=1;startArrow=none;startFill=0;endArrow=classic;endFill=1;" edge="1" source="7AzHG-92tgLLTeT5lNPb-93" target="7AzHG-92tgLLTeT5lNPb-95" parent="1">
          <mxGeometry relative="1" as="geometry" />
        </mxCell>
        <mxCell id="7AzHG-92tgLLTeT5lNPb-93" value="策略规则脚本获取" style="html=1;" vertex="1" parent="1">
          <mxGeometry x="715" y="750" width="110" height="50" as="geometry" />
        </mxCell>
        <mxCell id="7AzHG-92tgLLTeT5lNPb-94" value="" style="edgeStyle=orthogonalEdgeStyle;rounded=0;orthogonalLoop=1;jettySize=auto;html=1;startArrow=none;startFill=0;endArrow=classic;endFill=1;" edge="1" source="7AzHG-92tgLLTeT5lNPb-95" target="7AzHG-92tgLLTeT5lNPb-97" parent="1">
          <mxGeometry relative="1" as="geometry" />
        </mxCell>
        <mxCell id="7AzHG-92tgLLTeT5lNPb-95" value="规则词法解析" style="html=1;" vertex="1" parent="1">
          <mxGeometry x="715" y="830" width="110" height="50" as="geometry" />
        </mxCell>
        <mxCell id="7AzHG-92tgLLTeT5lNPb-96" value="" style="edgeStyle=orthogonalEdgeStyle;rounded=0;orthogonalLoop=1;jettySize=auto;html=1;startArrow=none;startFill=0;endArrow=classic;endFill=1;" edge="1" source="7AzHG-92tgLLTeT5lNPb-97" target="7AzHG-92tgLLTeT5lNPb-99" parent="1">
          <mxGeometry relative="1" as="geometry" />
        </mxCell>
        <mxCell id="7AzHG-92tgLLTeT5lNPb-97" value="语义分析" style="html=1;" vertex="1" parent="1">
          <mxGeometry x="715" y="910" width="110" height="50" as="geometry" />
        </mxCell>
        <mxCell id="7AzHG-92tgLLTeT5lNPb-98" value="" style="edgeStyle=orthogonalEdgeStyle;rounded=0;orthogonalLoop=1;jettySize=auto;html=1;startArrow=none;startFill=0;endArrow=classic;endFill=1;" edge="1" source="7AzHG-92tgLLTeT5lNPb-99" target="7AzHG-92tgLLTeT5lNPb-100" parent="1">
          <mxGeometry relative="1" as="geometry" />
        </mxCell>
        <mxCell id="7AzHG-92tgLLTeT5lNPb-99" value="执行优化" style="html=1;" vertex="1" parent="1">
          <mxGeometry x="715" y="990" width="110" height="50" as="geometry" />
        </mxCell>
        <mxCell id="7AzHG-92tgLLTeT5lNPb-100" value="Java源码生成&amp;amp;编译" style="html=1;" vertex="1" parent="1">
          <mxGeometry x="715" y="1070" width="110" height="50" as="geometry" />
        </mxCell>
        <mxCell id="7AzHG-92tgLLTeT5lNPb-101" value="" style="edgeStyle=orthogonalEdgeStyle;rounded=0;orthogonalLoop=1;jettySize=auto;html=1;startArrow=none;startFill=0;endArrow=classic;endFill=1;" edge="1" parent="1">
          <mxGeometry relative="1" as="geometry">
            <mxPoint x="770" y="710" as="sourcePoint" />
            <mxPoint x="770" y="790" as="targetPoint" />
          </mxGeometry>
        </mxCell>
        <mxCell id="7AzHG-92tgLLTeT5lNPb-102" value="&#xa;&#xa;&lt;span style=&quot;color: rgba(0, 0, 0, 0); font-family: monospace; font-size: 0px; font-style: normal; font-weight: 400; letter-spacing: normal; text-indent: 0px; text-transform: none; word-spacing: 0px; background-color: rgb(248, 249, 250); display: inline; float: none;&quot;&gt;&amp;nbsp;&lt;/span&gt;&#xa;&#xa;" style="shape=ext;rounded=1;html=1;whiteSpace=wrap;dashed=1;dashPattern=1 4;" vertex="1" parent="1">
          <mxGeometry x="695" y="739" width="150" height="391" as="geometry" />
        </mxCell>
        <mxCell id="7AzHG-92tgLLTeT5lNPb-103" value="" style="edgeStyle=orthogonalEdgeStyle;rounded=0;orthogonalLoop=1;jettySize=auto;html=1;startArrow=none;startFill=0;endArrow=classic;endFill=1;" edge="1" source="7AzHG-92tgLLTeT5lNPb-104" target="7AzHG-92tgLLTeT5lNPb-106" parent="1">
          <mxGeometry relative="1" as="geometry" />
        </mxCell>
        <mxCell id="7AzHG-92tgLLTeT5lNPb-104" value="策略规则脚本获取" style="html=1;" vertex="1" parent="1">
          <mxGeometry x="715" y="750" width="110" height="50" as="geometry" />
        </mxCell>
        <mxCell id="7AzHG-92tgLLTeT5lNPb-105" value="" style="edgeStyle=orthogonalEdgeStyle;rounded=0;orthogonalLoop=1;jettySize=auto;html=1;startArrow=none;startFill=0;endArrow=classic;endFill=1;" edge="1" source="7AzHG-92tgLLTeT5lNPb-106" target="7AzHG-92tgLLTeT5lNPb-108" parent="1">
          <mxGeometry relative="1" as="geometry" />
        </mxCell>
        <mxCell id="7AzHG-92tgLLTeT5lNPb-106" value="规则词法解析" style="html=1;" vertex="1" parent="1">
          <mxGeometry x="715" y="830" width="110" height="50" as="geometry" />
        </mxCell>
        <mxCell id="7AzHG-92tgLLTeT5lNPb-107" value="" style="edgeStyle=orthogonalEdgeStyle;rounded=0;orthogonalLoop=1;jettySize=auto;html=1;startArrow=none;startFill=0;endArrow=classic;endFill=1;" edge="1" source="7AzHG-92tgLLTeT5lNPb-108" target="7AzHG-92tgLLTeT5lNPb-110" parent="1">
          <mxGeometry relative="1" as="geometry" />
        </mxCell>
        <mxCell id="7AzHG-92tgLLTeT5lNPb-108" value="语义分析" style="html=1;" vertex="1" parent="1">
          <mxGeometry x="715" y="910" width="110" height="50" as="geometry" />
        </mxCell>
        <mxCell id="7AzHG-92tgLLTeT5lNPb-109" value="" style="edgeStyle=orthogonalEdgeStyle;rounded=0;orthogonalLoop=1;jettySize=auto;html=1;startArrow=none;startFill=0;endArrow=classic;endFill=1;" edge="1" source="7AzHG-92tgLLTeT5lNPb-110" target="7AzHG-92tgLLTeT5lNPb-111" parent="1">
          <mxGeometry relative="1" as="geometry" />
        </mxCell>
        <mxCell id="7AzHG-92tgLLTeT5lNPb-110" value="执行优化" style="html=1;" vertex="1" parent="1">
          <mxGeometry x="715" y="990" width="110" height="50" as="geometry" />
        </mxCell>
        <mxCell id="7AzHG-92tgLLTeT5lNPb-111" value="Java源码生成&amp;amp;编译" style="html=1;" vertex="1" parent="1">
          <mxGeometry x="715" y="1070" width="110" height="50" as="geometry" />
        </mxCell>
      </root>
    </mxGraphModel>
  </diagram>
</mxfile>
